<svg width="17" height="18" viewBox="0 0 17 18" fill="none" xmlns="http://www.w3.org/2000/svg">
<path d="M12.3271 11H11.5942L11.3344 10.73C12.2436 9.59 12.791 8.11 12.791 6.5C12.791 2.91 10.0912 0 6.76054 0C3.4299 0 0.730125 2.91 0.730125 6.5C0.730125 10.09 3.4299 13 6.76054 13C8.25423 13 9.62731 12.41 10.685 11.43L10.9354 11.71V12.5L15.5742 17.49L16.9566 16L12.3271 11ZM6.76054 11C4.45043 11 2.58564 8.99 2.58564 6.5C2.58564 4.01 4.45043 2 6.76054 2C9.07066 2 10.9354 4.01 10.9354 6.5C10.9354 8.99 9.07066 11 6.76054 11Z" fill="#959595"/>
</svg>
